<svg width="994" height="1000" viewBox="0 0 994 1000" fill="none" xmlns="http://www.w3.org/2000/svg">
<path d="M65.6389 709.259C24.3426 665.648 68.5185 548.972 135.13 477.62C216.13 390.87 327.796 317.898 543.639 342.713C721.87 363.213 832.528 453.102 870.167 499.407C930.018 573 973.259 676.833 937.213 719.778C876.722 791.861 626.796 669.213 491.231 666.713C355.667 664.213 157.852 806.481 65.6389 709.259Z" fill="#E1ECFF"/>
<path d="M706.12 639.583H235.657L136.704 316.092C135.757 313.003 135.549 309.734 136.097 306.549C136.644 303.365 137.932 300.353 139.856 297.757C141.78 295.161 144.287 293.053 147.174 291.602C150.062 290.152 153.25 289.4 156.482 289.407H583.722C588.145 289.406 592.451 290.826 596.007 293.456C599.562 296.086 602.179 299.789 603.472 304.018L706.12 639.583Z" fill="#F5A58C"/>
<path d="M629.074 601.074H291.556C287.093 601.074 282.748 599.642 279.159 596.988C275.571 594.335 272.928 590.6 271.62 586.333L196.685 341.352C196.208 339.797 196.103 338.153 196.378 336.55C196.653 334.948 197.3 333.432 198.267 332.125C199.234 330.818 200.495 329.756 201.947 329.026C203.4 328.295 205.004 327.915 206.63 327.917H544.148C548.611 327.917 552.956 329.349 556.544 332.002C560.133 334.656 562.775 338.391 564.083 342.658L639.019 587.639C639.495 589.193 639.601 590.838 639.326 592.441C639.051 594.043 638.404 595.559 637.437 596.866C636.469 598.173 635.209 599.235 633.756 599.965C632.304 600.696 630.7 601.076 629.074 601.074Z" fill="#1C3177"/>
<path d="M235.657 639.583H867.593C871.856 639.583 875.944 641.277 878.959 644.291C881.973 647.306 883.667 651.394 883.667 655.657V677.13C883.667 681.393 881.973 685.481 878.959 688.496C875.944 691.51 871.856 693.204 867.593 693.204H251.731C249.621 693.204 247.53 692.788 245.58 691.98C243.63 691.172 241.858 689.988 240.365 688.496C238.873 687.003 237.689 685.231 236.881 683.281C236.073 681.331 235.657 679.24 235.657 677.13V639.583Z" fill="#F7906F"/>
<path d="M312.676 476.296L351.111 433.398" stroke="#99ADF9" stroke-width="18" stroke-miterlimit="10" stroke-linecap="round"/>
<path d="M360.185 476.296L302.306 433.398" stroke="#99ADF9" stroke-width="18" stroke-miterlimit="10" stroke-linecap="round"/>
<path d="M502.472 476.296L540.907 433.398" stroke="#99ADF9" stroke-width="18" stroke-miterlimit="10" stroke-linecap="round"/>
<path d="M549.982 476.296L492.093 433.398" stroke="#99ADF9" stroke-width="18" stroke-miterlimit="10" stroke-linecap="round"/>
<path d="M407.472 503.407C407.472 503.407 437.602 486.796 468.204 503.407" stroke="#99ADF9" stroke-width="18" stroke-miterlimit="10" stroke-linecap="round"/>
<path d="M736.519 452.778C733.035 452.769 729.66 451.571 726.951 449.382C724.241 447.193 722.361 444.144 721.62 440.741C718.787 427.972 716.991 418.222 719.491 409.102C722.491 398.287 730.407 391.954 738.935 385.898C744.685 381.824 748.676 375.639 749.12 370.157C749.398 366.518 748.12 363.454 745.093 360.528C736.148 351.852 721.667 365.352 721.019 365.935C721.019 365.935 708.852 376.231 699.815 365.435C690.778 354.639 699.815 343.935 699.815 343.935C705.645 338.523 712.351 334.139 719.648 330.972C737.046 323.565 753.62 326.343 766.324 338.611C775.824 347.815 780.518 359.861 779.546 372.528C778.426 387.139 769.843 401.481 756.574 410.87C750.343 415.287 749.167 416.852 748.88 417.352C748.167 419.611 750.519 430.194 751.407 434.185C751.898 436.416 751.883 438.728 751.364 440.952C750.844 443.177 749.834 445.256 748.406 447.039C746.978 448.822 745.17 450.263 743.113 451.256C741.056 452.249 738.803 452.769 736.519 452.778Z" fill="#FEC272"/>
<path d="M743.88 505.759C753.662 505.759 761.593 497.829 761.593 488.046C761.593 478.264 753.662 470.333 743.88 470.333C734.097 470.333 726.167 478.264 726.167 488.046C726.167 497.829 734.097 505.759 743.88 505.759Z" fill="#FEC272"/>
</svg>
